<?xml version="1.0" encoding="UTF-8" standalone="no"?>
<!-- Created with Inkscape (http://www.inkscape.org/) -->

<svg
   width="47.522308mm"
   height="14.78048mm"
   viewBox="0 0 47.522308 14.78048"
   version="1.1"
   id="svg5"
   inkscape:version="1.2.1 (9c6d41e410, 2022-07-14)"
   sodipodi:docname="banner.svg"
   inkscape:export-filename="../../../mnt/aaaf8f1e-ba65-4a21-bcdc-0287d57b85e6/ownCloud/Studium/SS22/Fachpraktikum_KI/Source/agents_group3/src/site/images/banner.svg"
   inkscape:export-xdpi="300"
   inkscape:export-ydpi="300"
   xml:space="preserve"
   xmlns:inkscape="http://www.inkscape.org/namespaces/inkscape"
   xmlns:sodipodi="http://sodipodi.sourceforge.net/DTD/sodipodi-0.dtd"
   xmlns="http://www.w3.org/2000/svg"
   xmlns:svg="http://www.w3.org/2000/svg"><sodipodi:namedview
     id="namedview7"
     pagecolor="#ffffff"
     bordercolor="#666666"
     borderopacity="1.0"
     inkscape:pageshadow="2"
     inkscape:pageopacity="0.0"
     inkscape:pagecheckerboard="true"
     inkscape:document-units="mm"
     showgrid="false"
     inkscape:showpageshadow="2"
     inkscape:deskcolor="#d1d1d1"
     inkscape:zoom="1.1893044"
     inkscape:cx="389.30319"
     inkscape:cy="7.1470349"
     inkscape:window-width="1920"
     inkscape:window-height="1052"
     inkscape:window-x="0"
     inkscape:window-y="0"
     inkscape:window-maximized="1"
     inkscape:current-layer="layer1" /><defs
     id="defs2" /><g
     inkscape:label="Ebene 1"
     inkscape:groupmode="layer"
     id="layer1"><path
       id="path2813"
       style="fill:none;fill-opacity:1;stroke:#000000;stroke-width:0.43373061;stroke-linecap:round;stroke-linejoin:round;stroke-dasharray:none;stroke-opacity:1"
       d="M 6.3943012,3.9145354 C 5.2429921,5.0433903 5.3904953,7.8943425 7.2550956,9.7635604 9.1197084,11.632796 11.995352,11.812447 13.146676,10.683587 Z"
       sodipodi:nodetypes="cccc" /><path
       style="fill:none;stroke:#000000;stroke-width:0.45975273;stroke-linecap:butt;stroke-linejoin:miter;stroke-dasharray:none;stroke-opacity:1"
       d="M 9.7919957,7.3134497 10.629843,6.4319685"
       id="path2818"
       sodipodi:nodetypes="cc" /><ellipse
       style="fill:none;fill-opacity:1;stroke:#000000;stroke-width:0.43373061;stroke-linecap:round;stroke-linejoin:round;stroke-dasharray:none;stroke-opacity:1"
       id="path2820"
       cx="11.177209"
       cy="5.8492231"
       rx="0.83447158"
       ry="0.82487828" /><path
       style="fill:none;stroke:#4ba9d8;stroke-width:0.62222164;stroke-linecap:butt;stroke-linejoin:miter;stroke-opacity:1;fill-opacity:1;stroke-dasharray:none"
       d="m 11.34691,3.525423 c 0,0 0.922955,0.090648 1.501441,0.6485448 0.578474,0.5579116 0.623002,1.6752592 0.623002,1.6752592"
       id="path2822"
       sodipodi:nodetypes="czc" /><path
       style="fill:none;stroke:#0088cc;stroke-width:0.62222164;stroke-linecap:butt;stroke-linejoin:miter;stroke-opacity:1;fill-opacity:1;stroke-dasharray:none"
       d="m 11.345808,1.8213411 c 0,0 1.211282,0.09962 2.364909,1.1847215 1.153628,1.0850921 1.204822,2.8436366 1.204822,2.8436366"
       id="path2824"
       sodipodi:nodetypes="czc" /><path
       style="fill:none;stroke:#000000;stroke-width:0.43373061;stroke-linecap:butt;stroke-linejoin:miter;stroke-dasharray:none;stroke-opacity:1"
       d="M 6.8185014,9.3027347 2.4700435,13.233412 h 5.459762 l -0.056078,-2.841746"
       id="path2826"
       sodipodi:nodetypes="cccc" /><path
       style="fill:none;stroke:#000000;stroke-width:0.4576566;stroke-linecap:butt;stroke-linejoin:miter;stroke-opacity:1;stroke-dasharray:none"
       d="m 35.031612,1.6149227 c 0,0 -2.945354,-0.1595879 -2.945354,3.6984205 0,3.8580183 0,4.6489827 0,4.6489827 0,0.6559591 0.798767,1.4696091 1.408894,1.4696091 0.610126,0 1.548316,-0.0074 1.548316,-0.0074"
       id="path2616"
       sodipodi:nodetypes="czzzc" /><ellipse
       style="fill:none;fill-opacity:1;stroke:#0188cc;stroke-width:0.3;stroke-linecap:round;stroke-linejoin:round;stroke-dasharray:none;stroke-opacity:1"
       id="path2621"
       cx="34.0438"
       cy="3.8400185"
       rx="0.724338"
       ry="0.70094496" /><path
       style="fill:none;stroke:#000000;stroke-width:0.4576566;stroke-linecap:butt;stroke-linejoin:miter;stroke-opacity:1;stroke-dasharray:none"
       d="m 32.074421,5.3133432 h 2.969047"
       id="path2623" /><ellipse
       style="fill:none;fill-opacity:1;stroke:#000000;stroke-width:0.31134928;stroke-linecap:round;stroke-linejoin:round;stroke-dasharray:none"
       id="path2680"
       cx="29.760798"
       cy="4.2359214"
       rx="0.66051841"
       ry="0.64144427" /><path
       style="fill:none;stroke:#000000;stroke-width:0.4576566;stroke-linecap:butt;stroke-linejoin:miter;stroke-opacity:1;stroke-dasharray:none"
       d="m 28.691655,3.0042049 0.0018,0.8358136 0.398611,0.3959031"
       id="path2682" /><rect
       style="fill:none;fill-opacity:1;stroke:#000000;stroke-width:0.31134928;stroke-linecap:round;stroke-linejoin:round;stroke-dasharray:none"
       id="rect2684"
       width="1.0785899"
       height="2.5429084"
       x="30.995811"
       y="6.3735719" /><path
       style="fill:none;stroke:#000000;stroke-width:0.4576566;stroke-linecap:butt;stroke-linejoin:miter;stroke-opacity:1;stroke-dasharray:none"
       d="m 29.760807,4.8857758 c 0,0 0.04639,0.657359 0.04639,1.6371891 0,0.9798302 1.180634,1.2900782 1.180634,1.2900782"
       id="path2686"
       sodipodi:nodetypes="czc" /><path
       style="fill:none;stroke:#000000;stroke-width:0.4576566;stroke-linecap:butt;stroke-linejoin:miter;stroke-opacity:1;stroke-dasharray:none"
       d="m 30.81837,3.0228138 -0.0018,0.8358141 -0.398628,0.3959032"
       id="path2688" /><path
       style="fill:none;stroke:#000000;stroke-width:0.4576566;stroke-linecap:butt;stroke-linejoin:miter;stroke-opacity:1;stroke-dasharray:none"
       d="m 34.928114,1.6149625 c 0,0 3.076228,-0.159624 3.076228,3.6983807 v 4.6489827 c 0,0.6559591 -0.798767,1.4696091 -1.408894,1.4696091 -0.610126,0 -1.548316,-0.0074 -1.548316,-0.0074"
       id="path2716"
       sodipodi:nodetypes="czzzc" /><ellipse
       style="fill:none;fill-opacity:1;stroke:#0188cc;stroke-width:0.3;stroke-linecap:round;stroke-linejoin:round;stroke-dasharray:none;stroke-opacity:1"
       id="ellipse2718"
       cx="-36.046799"
       cy="3.8400185"
       rx="0.724338"
       ry="0.70094496"
       transform="scale(-1,1)" /><path
       style="fill:none;stroke:#000000;stroke-width:0.4576566;stroke-linecap:butt;stroke-linejoin:miter;stroke-opacity:1;stroke-dasharray:none"
       d="M 38.016179,5.3133432 H 35.047132"
       id="path2720" /><ellipse
       style="fill:none;fill-opacity:1;stroke:#000000;stroke-width:0.31134928;stroke-linecap:round;stroke-linejoin:round;stroke-dasharray:none"
       id="ellipse2722"
       cx="-40.329803"
       cy="4.2359214"
       rx="0.66051841"
       ry="0.64144427"
       transform="scale(-1,1)" /><path
       style="fill:none;stroke:#000000;stroke-width:0.4576566;stroke-linecap:butt;stroke-linejoin:miter;stroke-opacity:1;stroke-dasharray:none"
       d="m 41.398945,3.0042049 -0.0018,0.8358136 -0.398611,0.3959031"
       id="path2724" /><rect
       style="fill:none;fill-opacity:1;stroke:#000000;stroke-width:0.31134928;stroke-linecap:round;stroke-linejoin:round;stroke-dasharray:none"
       id="rect2726"
       width="1.0785899"
       height="2.5429084"
       x="-39.094788"
       y="6.3735719"
       transform="scale(-1,1)" /><path
       style="fill:none;stroke:#000000;stroke-width:0.4576566;stroke-linecap:butt;stroke-linejoin:miter;stroke-opacity:1;stroke-dasharray:none"
       d="m 40.329793,4.8857758 c 0,0 -0.04639,0.657359 -0.04639,1.6371891 0,0.9798302 -1.180634,1.2900782 -1.180634,1.2900782"
       id="path2728"
       sodipodi:nodetypes="czc" /><path
       style="fill:none;stroke:#000000;stroke-width:0.4576566;stroke-linecap:butt;stroke-linejoin:miter;stroke-opacity:1;stroke-dasharray:none"
       d="m 39.27223,3.0228138 0.0018,0.8358141 0.398628,0.3959032"
       id="path2730" /><rect
       style="fill:#000000;fill-opacity:1;stroke:none;stroke-width:0.31134928;stroke-linecap:round;stroke-linejoin:round;stroke-dasharray:none"
       id="rect2797"
       width="1.1704254"
       height="1.3518136"
       x="34.498241"
       y="11.671248" /><path
       style="fill:#f6f5f4;fill-opacity:1;stroke:none;stroke-width:1.17675261;stroke-linecap:round;stroke-linejoin:round;stroke-dasharray:none;stroke-opacity:1"
       d="M 39.860998,42.281046 C 31.096889,41.184855 24.047307,34.618017 22.345032,25.964544 21.971243,24.064398 22.002,21.174867 22.413721,19.511256 22.74114,18.18828 23.356267,16.794241 23.907107,16.126851 l 0.30633,-0.371146 12.273531,12.262696 12.273532,12.262695 -0.337484,0.276508 c -1.628488,1.334258 -5.478182,2.10916 -8.562018,1.723442 z"
       id="path5191"
       transform="scale(0.26458333)" /><path
       style="fill:#f6f5f4;fill-opacity:1;stroke:none;stroke-width:1.17675261;stroke-linecap:round;stroke-linejoin:round;stroke-dasharray:none;stroke-opacity:1"
       d="m 11.081017,49.292029 c 0.07766,-0.07169 3.406684,-3.077282 7.397822,-6.679087 l 7.256615,-6.548738 1.141472,1.156322 c 0.627812,0.635977 1.387011,1.350671 1.68711,1.58821 l 0.545634,0.431889 0.108113,5.090876 0.108114,5.090877 h -9.193044 c -5.27702,0 -9.132892,-0.05553 -9.051836,-0.130349 z"
       id="path5193"
       transform="scale(0.26458333)" /><path
       style="fill:#f5f5f5;fill-opacity:1;stroke:none;stroke-width:1.17675261;stroke-linecap:round;stroke-linejoin:round;stroke-dasharray:none;stroke-opacity:1"
       d="m 41.544525,24.493005 c -1.012337,-0.245935 -1.969272,-1.689075 -1.787357,-2.69549 0.234504,-1.297355 1.218273,-2.102883 2.568193,-2.102883 1.274974,0 2.254549,0.910383 2.379569,2.21149 0.162672,1.692954 -1.440045,3.004824 -3.160405,2.586883 z"
       id="path5195"
       transform="scale(0.26458333)" /><path
       style="fill:#f5f5f5;fill-opacity:1;stroke:none;stroke-width:1.17675261;stroke-linecap:round;stroke-linejoin:round;stroke-dasharray:none;stroke-opacity:1"
       d="m 125.69863,42.354991 c -1.45045,-0.532003 -3.15037,-2.342775 -3.5904,-3.824516 -0.1888,-0.635756 -0.22447,-2.109769 -0.22447,-9.275623 v -8.519749 h 10.55783 10.55783 l -0.0416,8.881164 -0.0416,8.881164 -0.51024,0.941103 c -0.64551,1.190593 -2.00102,2.441292 -3.08573,2.847135 -0.75619,0.282928 -1.13565,0.298753 -6.9258,0.288854 -4.87454,-0.0083 -6.24219,-0.05317 -6.69574,-0.219532 z"
       id="path5197"
       transform="scale(0.26458333)" /><path
       style="fill:#f5f5f5;fill-opacity:1;stroke:none;stroke-width:1.17675261;stroke-linecap:round;stroke-linejoin:round;stroke-dasharray:none;stroke-opacity:1"
       d="M 117.57324,28.910233 V 24.59971 h 1.48638 1.48639 v 4.310523 4.310523 h -1.48639 -1.48638 z"
       id="path5199"
       transform="scale(0.26458333)" /><path
       style="fill:#f5f5f5;fill-opacity:1;stroke:none;stroke-width:1.17675261;stroke-linecap:round;stroke-linejoin:round;stroke-dasharray:none;stroke-opacity:1"
       d="m 111.39283,17.639512 c -0.4949,-0.311333 -0.95459,-1.122709 -0.9537,-1.683312 3.1e-4,-0.192023 0.13089,-0.562883 0.29018,-0.824133 1.0998,-1.803722 3.72013,-1.127682 3.72196,0.960258 4.4e-4,0.511699 -0.095,0.738179 -0.49519,1.17485 -0.43084,0.470119 -0.60114,0.54877 -1.30059,0.600647 -0.61424,0.04556 -0.91327,-0.0085 -1.26266,-0.22831 z"
       id="path5201"
       transform="scale(0.26458333)" /><path
       style="fill:#f5f5f5;fill-opacity:1;stroke:none;stroke-width:1.17675261;stroke-linecap:round;stroke-linejoin:round;stroke-dasharray:none;stroke-opacity:1"
       d="M 144.32821,28.910233 V 24.59971 h 1.48638 1.48639 v 4.310523 4.310523 h -1.48639 -1.48638 z"
       id="path5203"
       transform="scale(0.26458333)" /><path
       style="fill:#f5f5f5;fill-opacity:1;stroke:none;stroke-width:1.17675261;stroke-linecap:round;stroke-linejoin:round;stroke-dasharray:none;stroke-opacity:1"
       d="m 151.3586,17.619707 c -1.29106,-0.787206 -1.1963,-2.688 0.16623,-3.334565 0.68097,-0.323141 1.2002,-0.300285 1.88188,0.08284 0.97414,0.547497 1.2972,1.689122 0.73767,2.606777 -0.55784,0.914885 -1.85177,1.214448 -2.78578,0.644948 z"
       id="path5207"
       transform="scale(0.26458333)" /><path
       style="fill:#f5f5f5;fill-opacity:1;stroke:none;stroke-width:0.9806272;stroke-linecap:round;stroke-linejoin:round;stroke-dasharray:none;stroke-opacity:1"
       d="m 122.04926,18.096765 c 0.29682,-4.008528 1.68874,-7.185984 3.96324,-9.0472476 1.57953,-1.2925579 4.26372,-2.2886667 6.15822,-2.2853323 1.68489,0.00297 3.98427,0.6446036 5.41807,1.5119025 3.14442,1.9020454 4.85431,5.1483004 5.32941,10.1179554 l 0.0959,1.003311 h -10.53058 -10.53058 z m 7.8286,-0.713919 c 2.17675,-0.909277 2.64106,-3.753629 0.8533,-5.22725 -1.74801,-1.440856 -4.39797,-0.69948 -5.11091,1.429868 -0.65495,1.956183 0.87679,4.015237 2.99419,4.024961 0.39094,0.0018 0.95948,-0.100615 1.26342,-0.227579 z m 7.58058,0 c 2.78785,-1.164553 2.49351,-5.165956 -0.43162,-5.867685 -3.02048,-0.724601 -5.21784,2.722019 -3.20034,5.01982 0.8783,1.000328 2.41063,1.358044 3.63196,0.847865 z"
       id="path5209"
       transform="scale(0.26458333)" /></g></svg>
